<svg width="32" height="32" viewBox="0 0 32 32" fill="none" xmlns="http://www.w3.org/2000/svg">
<path d="M22.6667 20L24.7333 22.0667C23.4533 24.32 20.2933 26.12 17.3333 26.56V14.6667H21.3333V12H17.3333V10.4267C18.88 9.86669 20 8.40002 20 6.66669C20 4.46669 18.2 2.66669 16 2.66669C13.8 2.66669 12 4.46669 12 6.66669C12 8.40002 13.12 9.86669 14.6667 10.4267V12H10.6667V14.6667H14.6667V26.56C11.7067 26.12 8.54667 24.32 7.26667 22.0667L9.33333 20L4 16V20C4 25.1734 10.56 29.3334 16 29.3334C21.44 29.3334 28 25.1734 28 20V16L22.6667 20ZM16 5.33335C16.7333 5.33335 17.3333 5.93335 17.3333 6.66669C17.3333 7.40002 16.7333 8.00002 16 8.00002C15.2667 8.00002 14.6667 7.40002 14.6667 6.66669C14.6667 5.93335 15.2667 5.33335 16 5.33335Z" fill="white"/>
</svg>
