<svg width="24" height="24" viewBox="0 0 24 24" fill="none" xmlns="http://www.w3.org/2000/svg">
<path d="M3 6C3 4.93913 3.42143 3.92172 4.17157 3.17157C4.92172 2.42143 5.93913 2 7 2H21V22H7C5.93913 22 4.92172 21.5786 4.17157 20.8284C3.42143 20.0783 3 19.0609 3 18V6ZM5 14.535C5.60784 14.1834 6.29782 13.9989 7 14H19V4H7C6.46957 4 5.96086 4.21071 5.58579 4.58579C5.21071 4.96086 5 5.46957 5 6V14.535ZM19 16H7C6.46957 16 5.96086 16.2107 5.58579 16.5858C5.21071 16.9609 5 17.4696 5 18C5 18.5304 5.21071 19.0391 5.58579 19.4142C5.96086 19.7893 6.46957 20 7 20H19V16ZM10 6H17V8H10V6Z" fill="#2D2D2D"/>
</svg>
