<svg width="28" height="28" viewBox="0 0 28 28" fill="none" xmlns="http://www.w3.org/2000/svg">
<g clip-path="url(#clip0_4_95)">
<path d="M2.66328 6.87969L5.57266 8.62422C5.99922 8.88125 6.54609 8.73359 6.78672 8.30156L11.025 0.661719C11.1891 0.366406 10.9758 0 10.6367 0C10.5492 0 10.4617 0.0273438 10.3852 0.0765625L2.61953 5.40313C2.09453 5.76406 2.11641 6.54609 2.66328 6.87422V6.87969ZM0.875 9.38984V16.1492C0.875 16.5867 1.44375 16.7508 1.67891 16.3898L4.96016 11.3586C5.23359 10.943 5.10234 10.3852 4.67578 10.1281L2.19844 8.64062C1.61875 8.29062 0.875 8.71172 0.875 9.38984ZM16.975 0.661719L21.2188 8.29609C21.4594 8.72812 22.0117 8.87578 22.4328 8.61875L25.3422 6.87422C25.8891 6.54609 25.9109 5.76406 25.3859 5.40313L17.6148 0.0765625C17.5383 0.0273438 17.4508 0 17.3633 0C17.0242 0 16.8109 0.366406 16.975 0.661719ZM27.125 9.38984C27.125 8.71172 26.3812 8.29062 25.8016 8.64062L23.3242 10.1281C22.8977 10.3852 22.7719 10.943 23.0398 11.3586L26.3211 16.3898C26.5562 16.7563 27.125 16.5867 27.125 16.1492V9.38984ZM24.4289 22.843L15.6461 23.8766C15.2031 23.9258 14.875 24.3031 14.875 24.7461V27.6336C14.875 27.8359 15.0391 28.0055 15.2469 28.0055C15.2906 28.0055 15.3344 28 15.3781 27.9836L24.8227 24.4836C25.1562 24.3633 25.375 24.0461 25.375 23.6906C25.375 23.182 24.932 22.7883 24.4289 22.8484V22.843ZM12.7531 28C12.9555 28 13.125 27.8359 13.125 27.6281V24.7516C13.125 24.3086 12.7914 23.9367 12.3539 23.882L3.57109 22.843C3.06797 22.7828 2.625 23.1766 2.625 23.6852C2.625 24.0406 2.84375 24.3578 3.17734 24.4781L12.6219 27.9781C12.6656 27.9945 12.7094 28 12.7531 28ZM2.28047 20.9398L11.6266 22.0445C12.0531 22.0938 12.3594 21.6344 12.1461 21.2625L7.45937 13.0594C7.13672 12.4906 6.32734 12.4688 5.96641 13.0156L1.65156 19.5891C1.29609 20.1305 1.63516 20.8633 2.28047 20.9398ZM26.3211 19.5836L22.0336 13.0211C21.6781 12.4742 20.8633 12.4961 20.5406 13.0648L15.8703 21.2461C15.657 21.618 15.9578 22.0773 16.3898 22.0281L25.6922 20.9344C26.3375 20.8578 26.6766 20.1305 26.3211 19.5891V19.5836ZM14.4594 20.1852L18.7469 12.682C19.0805 12.0969 18.6594 11.375 17.9867 11.375H10.0133C9.34063 11.375 8.91953 12.1023 9.25313 12.682L13.5406 20.1852C13.743 20.5352 14.2516 20.5352 14.4539 20.1852H14.4594ZM9.5375 9.625H18.4625C19.1297 9.625 19.5508 8.90859 19.2281 8.32344L14.8531 0.448437C14.7 0.169531 14.4047 0 14.0875 0H13.9125C13.5953 0 13.3 0.175 13.1469 0.448437L8.77187 8.32344C8.44922 8.90859 8.87031 9.625 9.5375 9.625Z" fill="white"/>
</g>
<defs>
<clipPath id="clip0_4_95">
<rect width="28" height="28" fill="white"/>
</clipPath>
</defs>
</svg>
