<svg width="28" height="28" viewBox="0 0 28 28" fill="none" xmlns="http://www.w3.org/2000/svg">
<path d="M4.54992 14C4.54992 12.005 6.17159 10.3833 8.16659 10.3833H12.8333V8.16663H8.16659C4.94659 8.16663 2.33325 10.78 2.33325 14C2.33325 17.22 4.94659 19.8333 8.16659 19.8333H12.8333V17.6166H8.16659C6.17159 17.6166 4.54992 15.995 4.54992 14ZM9.33325 15.1666H18.6666V12.8333H9.33325V15.1666ZM19.8333 8.16663H15.1666V10.3833H19.8333C21.8283 10.3833 23.4499 12.005 23.4499 14C23.4499 15.995 21.8283 17.6166 19.8333 17.6166H15.1666V19.8333H19.8333C23.0533 19.8333 25.6666 17.22 25.6666 14C25.6666 10.78 23.0533 8.16663 19.8333 8.16663Z" fill="white"/>
</svg>
