<svg width="28" height="28" viewBox="0 0 28 28" fill="none" xmlns="http://www.w3.org/2000/svg">
<g clip-path="url(#clip0_4_91)">
<path d="M14.4375 0C3.27249 0 -1.50501 12.915 0.419986 17.36C1.85499 20.6675 5.00499 17.5 6.26499 19.11C9.55499 23.415 2.57249 25.7775 6.42249 27.3C10.955 29.155 28 28 28 12.3725C28 7.665 25.655 0 14.4375 0ZM7.82249 15.75C7.30567 15.7397 6.80341 15.577 6.3787 15.2823C5.95398 14.9877 5.62571 14.5742 5.43505 14.0937C5.2444 13.6132 5.19985 13.0872 5.30699 12.5815C5.41412 12.0758 5.66818 11.613 6.0373 11.2511C6.40642 10.8892 6.87416 10.6444 7.38188 10.5473C7.88959 10.4502 8.41468 10.5051 8.89128 10.7052C9.36789 10.9054 9.77479 11.2418 10.061 11.6722C10.3472 12.1027 10.4999 12.6081 10.5 13.125C10.5 13.8212 10.2234 14.4889 9.73114 14.9812C9.23886 15.4734 8.57118 15.75 7.87499 15.75H7.81899H7.82249ZM10.5 6.125C10.5 5.60582 10.6539 5.09831 10.9424 4.66663C11.2308 4.23495 11.6408 3.8985 12.1204 3.69982C12.6001 3.50114 13.1279 3.44915 13.6371 3.55044C14.1463 3.65173 14.614 3.90173 14.9811 4.26884C15.3483 4.63596 15.5983 5.10369 15.6995 5.61289C15.8008 6.12209 15.7489 6.64989 15.5502 7.12954C15.3515 7.6092 15.015 8.01917 14.5834 8.30761C14.1517 8.59605 13.6442 8.75 13.125 8.75H13.069C12.3825 8.73535 11.7292 8.45234 11.2489 7.96163C10.7687 7.47093 10.4998 6.8116 10.5 6.125ZM14.8225 24.5C14.3057 24.4897 13.8034 24.327 13.3787 24.0323C12.954 23.7377 12.6257 23.3242 12.4351 22.8437C12.2444 22.3632 12.1998 21.8372 12.307 21.3315C12.4141 20.8258 12.6682 20.363 13.0373 20.0011C13.4064 19.6392 13.8742 19.3944 14.3819 19.2973C14.8896 19.2002 15.4147 19.2551 15.8913 19.4552C16.3679 19.6554 16.7748 19.9918 17.061 20.4222C17.3472 20.8527 17.4999 21.3581 17.5 21.875C17.5 22.5712 17.2234 23.2389 16.7311 23.7312C16.2389 24.2234 15.5712 24.5 14.875 24.5H14.819H14.8225ZM21.8225 19.25C21.3057 19.2397 20.8034 19.077 20.3787 18.7823C19.954 18.4877 19.6257 18.0742 19.4351 17.5937C19.2444 17.1132 19.1999 16.5872 19.307 16.0815C19.4141 15.5758 19.6682 15.113 20.0373 14.7511C20.4064 14.3892 20.8742 14.1444 21.3819 14.0473C21.8896 13.9502 22.4147 14.0051 22.8913 14.2052C23.3679 14.4054 23.7748 14.7418 24.061 15.1722C24.3472 15.6027 24.4999 16.1081 24.5 16.625C24.5 17.3212 24.2234 17.9889 23.7311 18.4812C23.2389 18.9734 22.5712 19.25 21.875 19.25H21.819H21.8225ZM21.8225 10.5C21.3057 10.4897 20.8034 10.327 20.3787 10.0323C19.954 9.73766 19.6257 9.32417 19.4351 8.8437C19.2444 8.36323 19.1999 7.83716 19.307 7.33146C19.4141 6.82577 19.6682 6.36296 20.0373 6.00108C20.4064 5.6392 20.8742 5.39436 21.3819 5.29726C21.8896 5.20015 22.4147 5.25511 22.8913 5.45524C23.3679 5.65537 23.7748 5.99176 24.061 6.42223C24.3472 6.8527 24.4999 7.35808 24.5 7.875C24.5 8.57119 24.2234 9.23887 23.7311 9.73116C23.2389 10.2234 22.5712 10.5 21.875 10.5H21.819H21.8225Z" fill="white"/>
</g>
<defs>
<clipPath id="clip0_4_91">
<rect width="28" height="28" fill="white"/>
</clipPath>
</defs>
</svg>
