<svg width="20" height="21" viewBox="0 0 20 21" fill="none" xmlns="http://www.w3.org/2000/svg">
<path d="M14.6654 13.4504H13.7386L13.4101 13.1203C14.1433 12.2327 14.6791 11.1871 14.9792 10.0584C15.2794 8.92978 15.3364 7.74593 15.1463 6.5916C14.595 3.19276 11.8734 0.478576 8.58873 0.0628904C7.43396 -0.0893658 6.26107 0.0357138 5.15981 0.428558C4.05855 0.821402 3.05812 1.4716 2.23506 2.32939C1.412 3.18719 0.788138 4.22985 0.411203 5.37758C0.0342676 6.52532 -0.0857468 7.74771 0.0603435 8.95123C0.459195 12.3745 3.06346 15.211 6.32466 15.7856C7.43224 15.9837 8.56815 15.9242 9.6511 15.6114C10.7341 15.2986 11.7373 14.7402 12.589 13.9761L12.9057 14.3185V15.2843L17.8914 20.4804C18.3723 20.9817 19.1583 20.9817 19.6393 20.4804C20.1202 19.9791 20.1202 19.16 19.6393 18.6587L14.6654 13.4504ZM7.6268 13.4504C4.70579 13.4504 2.34788 10.993 2.34788 7.94869C2.34788 4.9044 4.70579 2.44697 7.6268 2.44697C10.5478 2.44697 12.9057 4.9044 12.9057 7.94869C12.9057 10.993 10.5478 13.4504 7.6268 13.4504Z" fill="black"/>
</svg>
