<svg width="28" height="28" viewBox="0 0 28 28" fill="none" xmlns="http://www.w3.org/2000/svg">
<path d="M24.1828 2L26 8.81462L24.4961 9.22193C23.7911 7.85901 23.0705 6.49608 22.2402 5.80679C21.4099 5.13316 20.4386 5.13316 19.483 5.13316H15.5666V21.5822C15.5666 22.3655 15.5666 23.1488 16.0836 23.5405C16.6162 23.9321 17.6501 23.9321 18.6997 23.9321V25.4987H9.30026V23.9321C10.3499 23.9321 11.3838 23.9321 11.9164 23.5405C12.4334 23.1488 12.4334 22.3655 12.4334 21.5822V5.13316H8.51697C7.56136 5.13316 6.59008 5.13316 5.75979 5.80679C4.9295 6.49608 4.20888 7.85901 3.50392 9.22193L2 8.81462L3.81723 2H24.1828Z" fill="white"/>
</svg>
