<svg width="30" height="30" viewBox="0 0 30 30" fill="none" xmlns="http://www.w3.org/2000/svg">
<path d="M21.25 18.75L23.1875 20.6875C21.9875 22.8 19.025 24.4875 16.25 24.9V13.75H20V11.25H16.25V9.775C17.7 9.25 18.75 7.875 18.75 6.25C18.75 4.1875 17.0625 2.5 15 2.5C12.9375 2.5 11.25 4.1875 11.25 6.25C11.25 7.875 12.3 9.25 13.75 9.775V11.25H10V13.75H13.75V24.9C10.975 24.4875 8.0125 22.8 6.8125 20.6875L8.75 18.75L3.75 15V18.75C3.75 23.6 9.9 27.5 15 27.5C20.1 27.5 26.25 23.6 26.25 18.75V15L21.25 18.75ZM15 5C15.6875 5 16.25 5.5625 16.25 6.25C16.25 6.9375 15.6875 7.5 15 7.5C14.3125 7.5 13.75 6.9375 13.75 6.25C13.75 5.5625 14.3125 5 15 5Z" fill="white"/>
</svg>
