<svg width="8" height="12" viewBox="0 0 8 12" fill="none" xmlns="http://www.w3.org/2000/svg">
<path d="M7.1274 4.88202L2.49883 0.29202C2.40547 0.199438 2.29463 0.125998 2.17265 0.0758934C2.05067 0.0257884 1.91994 9.75508e-10 1.7879 0C1.65587 -9.75511e-10 1.52514 0.0257884 1.40315 0.0758934C1.28117 0.125998 1.17034 0.199438 1.07698 0.29202C0.98362 0.384602 0.909564 0.494513 0.859037 0.615477C0.808511 0.736441 0.782505 0.86609 0.782505 0.997021C0.782505 1.12795 0.808511 1.2576 0.859037 1.37856C0.909564 1.49953 0.98362 1.60944 1.07698 1.70202L4.98959 5.59202L1.07698 9.47202C0.98362 9.5646 0.909564 9.67451 0.859037 9.79548C0.808511 9.91644 0.782505 10.0461 0.782505 10.177C0.782505 10.308 0.808511 10.4376 0.859037 10.5586C0.909564 10.6795 0.98362 10.7894 1.07698 10.882C1.17034 10.9746 1.28117 11.048 1.40315 11.0981C1.52514 11.1483 1.65587 11.174 1.7879 11.174C1.91994 11.174 2.05067 11.1483 2.17265 11.0981C2.29463 11.048 2.40547 10.9746 2.49883 10.882L7.1274 6.29202C7.22088 6.19951 7.29505 6.08962 7.34565 5.96864C7.39625 5.84767 7.4223 5.71799 7.4223 5.58702C7.4223 5.45605 7.39625 5.32637 7.34565 5.2054C7.29505 5.08442 7.22088 4.97453 7.1274 4.88202Z" fill="white"/>
</svg>
