<svg width="7" height="12" viewBox="0 0 7 12" fill="none" xmlns="http://www.w3.org/2000/svg">
<path d="M0.292444 6.71002L4.88244 11.3C4.97503 11.3926 5.08494 11.466 5.2059 11.5161C5.32687 11.5663 5.45651 11.592 5.58744 11.592C5.71837 11.592 5.84802 11.5663 5.96899 11.5161C6.08995 11.466 6.19986 11.3926 6.29244 11.3C6.38503 11.2074 6.45847 11.0975 6.50857 10.9766C6.55868 10.8556 6.58447 10.726 6.58447 10.595C6.58447 10.4641 6.55868 10.3344 6.50857 10.2135C6.45847 10.0925 6.38503 9.9826 6.29244 9.89002L2.41244 6.00002L6.29244 2.12002C6.38503 2.02744 6.45847 1.91753 6.50857 1.79656C6.55868 1.6756 6.58447 1.54595 6.58447 1.41502C6.58447 1.28409 6.55868 1.15444 6.50857 1.03348C6.45847 0.912514 6.38503 0.802602 6.29244 0.71002C6.19986 0.617438 6.08995 0.544 5.96899 0.493895C5.84802 0.443789 5.71837 0.418001 5.58744 0.418001C5.45651 0.418001 5.32687 0.443789 5.2059 0.493895C5.08494 0.544 4.97503 0.617438 4.88244 0.71002L0.292444 5.30002C0.199741 5.39253 0.126193 5.50242 0.0760117 5.6234C0.0258302 5.74437 0 5.87405 0 6.00502C0 6.13599 0.0258302 6.26567 0.0760117 6.38664C0.126193 6.50762 0.199741 6.61751 0.292444 6.71002Z" fill="#2D2D2D"/>
</svg>
