<svg width="24" height="26" viewBox="0 0 24 26" fill="none" xmlns="http://www.w3.org/2000/svg">
<path d="M17.5984 16.1405H16.4863L16.0922 15.7444C16.9719 14.6792 17.6149 13.4245 17.9751 12.0701C18.3352 10.7157 18.4037 9.29511 18.1756 7.90992C17.514 3.83131 14.2481 0.574291 10.3065 0.0754685C8.92075 -0.107239 7.51328 0.0428566 6.19177 0.51427C4.87026 0.985682 3.66974 1.76592 2.68207 2.79527C1.6944 3.82463 0.945766 5.07582 0.493443 6.4531C0.0411211 7.83038 -0.102896 9.29726 0.0724122 10.7415C0.551034 14.8494 3.67616 18.2532 7.5896 18.9427C8.91869 19.1805 10.2818 19.1091 11.5813 18.7337C12.8809 18.3583 14.0847 17.6882 15.1068 16.7714L15.4869 17.1822V18.3412L21.4696 24.5765C22.0468 25.178 22.99 25.178 23.5671 24.5765C24.1443 23.9749 24.1443 22.992 23.5671 22.3905L17.5984 16.1405ZM9.15216 16.1405C5.64695 16.1405 2.81745 13.1916 2.81745 9.53843C2.81745 5.88529 5.64695 2.93636 9.15216 2.93636C12.6574 2.93636 15.4869 5.88529 15.4869 9.53843C15.4869 13.1916 12.6574 16.1405 9.15216 16.1405Z" fill="#a0a0a0"/>
</svg>
